<svg xmlns="http://www.w3.org/2000/svg" xml:space="preserve" style="enable-background:new 0 0 300 72"
     viewBox="0 0 300 72"><linearGradient id="a" x1="228.293" x2="299.707" y1="71.707" y2=".293" gradientUnits="userSpaceOnUse"><stop offset=".06" style="stop-color:#48b878"/><stop
        offset=".56" style="stop-color:#64be54"/><stop offset=".96" style="stop-color:#80c454"/></linearGradient>
    <path d="M228 70.1c0 .9 0 1.3.3 1.6l.1.1c.3.3.7.3 1.6.3 32.1 0 48.1 0 58.4-9.5.8-.7 1.5-1.4 2.2-2.2C300 50 300 34 300 1.9c0-.9 0-1.3-.3-1.6l-.1-.1c-.2-.2-.7-.2-1.5-.2C266 0 250 0 239.6 9.5c-.8.7-1.5 1.4-2.2 2.2C228 22 228 38 228 70.1z"
          style="fill:url(#a)"/>
    <path d="M109.6 12h8v48h-8zM50.5 12H35v48h8V47h7.5C60.1 47 68 39.1 68 29.5S60.1 12 50.5 12zm0 27H43V20h7.5c5.2 0 9.5 4.3 9.5 9.5S55.7 39 50.5 39zM105.3 60l-9.8-14.8c5.8-2.8 9.9-8.8 9.9-15.7 0-9.6-7.9-17.5-17.5-17.5H72.3v48h8V47H87l8.7 13h9.6zM87.8 39h-7.5V20h7.5c5.2 0 9.5 4.3 9.5 9.5S93.1 39 87.8 39zM191.8 60.5c-13.5 0-24.5-11-24.5-24.5s11-24.5 24.5-24.5c7.9 0 15.3 3.8 19.9 10.3l-6.5 4.7c-3.1-4.3-8.1-6.9-13.4-6.9-9.1 0-16.5 7.4-16.5 16.5s7.4 16.5 16.5 16.5c6.6 0 12.4-3.9 14.8-9.5h-12.3v-8h21.8c0 2.1-.3 4.4-.3 4.4-1.4 11.9-11.7 21-24 21zM154.9 42.1l-31-30.1h-1v48h8V30L162 60h.9V12h-8zM17 60.5C7 60.5 1 52.9 0 49l7-3c.1.5 2.6 6.5 9.9 6.5 3.8 0 6.1-2.5 6.1-5.5 0-2.9-2.4-4.7-7-6.9l-2.5-1.2C6.7 35.6 2.9 32.4 2.9 25c0-8 6.8-13.5 15.1-13.5 8.5 0 12.6 6 13.1 7.5l-6 4c-.5-1-2.9-4-7-4-3.9 0-7 2-7 6 0 3 2.1 4.6 5.6 6.3l2.5 1.2C25.4 35.5 31 39.8 31 47c0 5.4-3.3 13.5-14 13.5z"
          class="pls1"/>
    <path d="M228.3 71.7c.3.3.7.3 1.6.3 32.1 0 48.1 0 58.4-9.5.8-.7 1.5-1.4 2.2-2.2C300 50 300 34 300 1.9c0-.9 0-1.3-.3-1.6l-71.4 71.4z"
          class="pls2"/>
    <path d="M281 35c0 6.6-5.4 12-12 12-4.3 0-8.1-2.3-10.2-5.8l-5 5c3.5 4.7 9 7.7 15.3 7.7 10.5 0 19-8.5 19-19 0-6.3-3.1-11.8-7.7-15.3l-5 5c3.3 2.3 5.6 6.1 5.6 10.4zM251 49V17.5h-7V56z"
          class="pls3"/></svg>